<?xml version="1.0" encoding="UTF-8"?>
<svg id="Camada_2" data-name="Camada 2" xmlns="http://www.w3.org/2000/svg" viewBox="0 0 972.37 972.57">
  <defs>
    <style>
      .cls-1 {
        fill: #50b6b7;
      }

      .cls-2 {
        fill: #dac354;
      }

      .cls-3 {
        fill: #fff;
      }

      .cls-4 {
        fill: #ff7939;
      }

      .cls-5 {
        fill: #965f97;
      }
    </style>
  </defs>
  <g id="Camada_1-2" data-name="Camada 1">
    <g>
      <path class="cls-4" d="M956.31,462.23c-8.24,0-15.25-6.32-15.96-14.68-18.81-222.51-193.99-397.27-416.55-415.53-8.83-.72-15.39-8.47-14.67-17.29.73-8.82,8.46-15.4,17.29-14.67,114.43,9.39,222.46,59.47,304.18,141,81.71,81.52,132.03,189.41,141.7,303.79.75,8.82-5.8,16.58-14.63,17.33-.46.04-.92.06-1.37.06Z"/>
      <path class="cls-2" d="M16.05,462.23c-.45,0-.91-.02-1.37-.06-8.82-.75-15.37-8.5-14.63-17.33,9.63-113.97,59.67-221.57,140.9-302.98C222.17,60.47,329.64,10.18,443.55.27c8.82-.77,16.6,5.76,17.36,14.58.77,8.82-5.76,16.6-14.58,17.36C224.97,51.47,50.73,226.15,32.01,447.55c-.71,8.36-7.72,14.68-15.96,14.68Z"/>
      <path class="cls-1" d="M525.1,972.57c-8.26,0-15.28-6.34-15.96-14.73-.72-8.83,5.84-16.57,14.67-17.29,222.55-18.26,397.74-193.02,416.55-415.53.75-8.82,8.52-15.34,17.33-14.63,8.82.75,15.37,8.5,14.63,17.33-9.67,114.38-60,222.26-141.7,303.79-81.72,81.54-189.75,131.61-304.18,141-.44.04-.89.05-1.33.05Z"/>
      <path class="cls-5" d="M444.96,972.36c-.47,0-.93-.02-1.41-.06-113.91-9.91-221.38-60.2-302.59-141.6C59.73,749.29,9.69,641.69.06,527.72c-.75-8.83,5.8-16.58,14.63-17.33,8.84-.72,16.58,5.8,17.33,14.63,18.72,221.4,192.96,396.08,414.32,415.34,8.82.77,15.35,8.54,14.58,17.36-.73,8.35-7.73,14.65-15.96,14.65Z"/>
      <g>
        <path class="cls-3" d="M239.44,277.25c46.8-55.16,111.71-94.47,185.46-108.67v-25.89c0-5.24.67-10.33,1.93-15.17-88.05,14.52-165.54,60.76-220.28,126.58,4.68,1.4,9.23,3.34,13.57,5.84,7.7,4.44,14.22,10.34,19.32,17.31Z"/>
        <path class="cls-3" d="M543.11,127.12c1.33,4.97,2.05,10.19,2.05,15.58v25.45c150.34,27.8,264.57,159.88,264.57,318.14,0,178.4-145.14,323.55-323.55,323.55s-323.55-145.14-323.55-323.55c0-38.3,6.71-75.07,18.98-109.2-8.52-.95-16.84-3.64-24.48-8.05-4.39-2.54-8.4-5.55-11.99-8.96-14.6,39.33-22.6,81.85-22.6,126.21,0,200.51,163.12,363.63,363.63,363.63s363.63-163.13,363.63-363.63c0-181.14-133.15-331.76-306.71-359.17Z"/>
        <path class="cls-3" d="M681.45,486.28c0,33.41-8.44,64.89-23.3,92.42,9.25,3.04,17.73,8.21,24.81,15.29,2.83,2.83,5.32,5.87,7.5,9.07,19.76-34.43,31.07-74.31,31.07-116.78,0-109.42-75.05-201.63-176.38-227.87v41.71c78.94,25.06,136.3,99.03,136.3,186.16Z"/>
        <path class="cls-3" d="M578.63,658.24c-27.54,14.86-59.03,23.31-92.45,23.31-107.67,0-195.27-87.6-195.27-195.27,0-86.27,56.24-159.65,133.98-185.41v-41.84c-100.15,27.04-174.07,118.66-174.07,227.25,0,129.78,105.58,235.36,235.36,235.36,42.46,0,82.33-11.31,116.77-31.06-3.21-2.2-6.24-4.7-9.05-7.51-7.21-7.21-12.28-15.75-15.26-24.83Z"/>
        <path class="cls-3" d="M654.62,622.34c-4.32-4.32-10.07-6.71-16.19-6.71-2.46,0-4.85.4-7.12,1.14-3.38,1.1-6.49,2.98-9.08,5.57s-4.46,5.69-5.57,9.07c-.74,2.27-1.14,4.66-1.14,7.11,0,6.12,2.38,11.87,6.71,16.19,4.32,4.32,10.07,6.71,16.19,6.71,1.91,0,3.78-.26,5.59-.71,3.98-.99,7.63-3.02,10.6-6s5-6.63,6-10.6c.45-1.81.71-3.67.71-5.59,0-6.11-2.38-11.86-6.71-16.19Z"/>
        <path class="cls-3" d="M210.74,308.56c-1.58-5.91-5.37-10.85-10.67-13.9-5.3-3.06-11.46-3.87-17.38-2.29-1.91.51-3.71,1.28-5.39,2.23-3.51,1.99-6.45,4.86-8.51,8.44-2.05,3.55-3.07,7.5-3.05,11.49,0,1.96.24,3.94.76,5.88,1.58,5.91,5.37,10.85,10.67,13.9,5.3,3.06,11.47,3.87,17.38,2.29,2.27-.61,4.39-1.55,6.32-2.76,3.1-1.96,5.7-4.64,7.58-7.9,1.87-3.24,2.89-6.8,3.05-10.43.1-2.31-.14-4.65-.76-6.95Z"/>
        <path class="cls-3" d="M545.16,422.29c-10.81-9.96-24.14-17.21-38.93-20.7V142.7c0-11.07-8.97-20.04-20.04-20.04h0c-11.07,0-20.04,8.97-20.04,20.04v258.63c-15.79,3.5-29.96,11.28-41.24,22.07-16.57,15.85-26.91,38.15-26.91,62.89,0,48.07,38.97,87.04,87.04,87.04.19,0,.38-.01.58-.01.19,0,.38.01.58.01,48.07,0,87.04-38.97,87.04-87.04,0-25.31-10.81-48.09-28.06-63.99ZM486.18,538.69c-28.94,0-52.4-23.46-52.4-52.4,0-21.84,13.36-40.55,32.36-48.42,6.18-2.56,12.94-3.98,20.04-3.98s13.87,1.42,20.04,3.98c18.99,7.87,32.36,26.58,32.36,48.42,0,28.94-23.46,52.4-52.4,52.4Z"/>
      </g>
    </g>
  </g>
</svg>